<svg width="17" height="17" viewBox="0 0 17 17" fill="none" xmlns="http://www.w3.org/2000/svg">
<path d="M8.49985 9.68817C10.1403 9.68817 11.4702 8.35832 11.4702 6.71786C11.4702 5.07741 10.1403 3.74756 8.49985 3.74756C6.85939 3.74756 5.52954 5.07741 5.52954 6.71786C5.52954 8.35832 6.85939 9.68817 8.49985 9.68817Z" stroke="#0043C3" stroke-width="1.28713" stroke-linecap="round" stroke-linejoin="round"/>
<path d="M3.42651 14.3218C3.9567 13.4515 4.70186 12.7322 5.59033 12.2332C6.47881 11.7341 7.48073 11.4719 8.4998 11.4719C9.51886 11.4719 10.5208 11.7341 11.4093 12.2332C12.2978 12.7322 13.0428 13.4515 13.5731 14.3218" stroke="#0043C3" stroke-width="1.28713" stroke-linecap="round" stroke-linejoin="round"/>
<path d="M8.4999 16.2227C12.7651 16.2227 16.2227 12.7651 16.2227 8.4999C16.2227 4.23471 12.7651 0.7771 8.4999 0.7771C4.23471 0.7771 0.7771 4.23471 0.7771 8.4999C0.7771 12.7651 4.23471 16.2227 8.4999 16.2227Z" stroke="#0043C3" stroke-width="1.28713" stroke-linecap="round" stroke-linejoin="round"/>
</svg>
