<svg width="20" height="16" viewBox="0 0 20 16" fill="none" xmlns="http://www.w3.org/2000/svg">
<path d="M7.59551 5.48921C8.09276 4.9914 8.72654 4.6523 9.41658 4.51488C10.1067 4.37745 10.822 4.4479 11.472 4.71724C12.1221 4.98658 12.6776 5.44273 13.0683 6.02795C13.4589 6.61313 13.6672 7.30113 13.6666 8.00478C13.6674 8.94371 13.2967 9.84478 12.6355 10.5114" stroke="#0043C3" stroke-width="1.3" stroke-linecap="round" stroke-linejoin="round"/>
<path d="M10.111 11.5603C9.16794 11.5603 8.26358 11.1857 7.59683 10.5189C6.92998 9.85214 6.55541 8.94778 6.55541 8.00476" stroke="#0043C3" stroke-width="1.3" stroke-linecap="round" stroke-linejoin="round"/>
<path d="M5.12444 3.00923C9.72 -0.990767 14.8133 0.671437 19 7.98698C17.9858 9.85755 16.6704 11.5484 15.1067 12.9914" stroke="#0043C3" stroke-width="1.3" stroke-linecap="round" stroke-linejoin="round"/>
<path d="M3.38281 4.82251C2.57339 5.81973 1.85073 6.88439 1.22281 8.00474C4.77837 14.227 8.98281 16.3514 12.9828 14.4225" stroke="#0043C3" stroke-width="1.3" stroke-linecap="round" stroke-linejoin="round"/>
</svg>
