<svg width="12" height="13" viewBox="0 0 12 13" fill="none" xmlns="http://www.w3.org/2000/svg">
<path fill-rule="evenodd" clip-rule="evenodd" d="M6 12.5C9.31371 12.5 12 9.81371 12 6.5C12 3.18629 9.31371 0.5 6 0.5C2.68629 0.5 0 3.18629 0 6.5C0 9.81371 2.68629 12.5 6 12.5ZM8.69786 3.80214C8.86473 3.96901 8.86473 4.23956 8.69786 4.40643L6.60429 6.5L8.69786 8.59357C8.86473 8.76044 8.86473 9.03099 8.69786 9.19786C8.53099 9.36473 8.26044 9.36473 8.09357 9.19786L6 7.10429L3.90643 9.19786C3.73956 9.36473 3.46901 9.36473 3.30214 9.19786C3.13527 9.03099 3.13527 8.76044 3.30214 8.59357L5.39571 6.5L3.30214 4.40643C3.13527 4.23956 3.13527 3.96901 3.30214 3.80214C3.46901 3.63527 3.73956 3.63527 3.90643 3.80214L6 5.89571L8.09357 3.80214C8.26044 3.63527 8.53099 3.63527 8.69786 3.80214Z" fill="#D9D9D9"/>
</svg>
