<svg width="12" height="13" viewBox="0 0 12 13" fill="none" xmlns="http://www.w3.org/2000/svg">
<path fill-rule="evenodd" clip-rule="evenodd" d="M1.75736 10.7426C0.632141 9.61742 0 8.0913 0 6.5C0 4.9087 0.632141 3.38258 1.75736 2.25736C2.88258 1.13214 4.4087 0.5 6 0.5C7.5913 0.5 9.11742 1.13214 10.2426 2.25736C11.3679 3.38258 12 4.9087 12 6.5C12 8.0913 11.3679 9.61742 10.2426 10.7426C9.11742 11.8679 7.5913 12.5 6 12.5C4.4087 12.5 2.88258 11.8679 1.75736 10.7426ZM9.5264 4.26167C9.49566 4.20395 9.45381 4.15283 9.40323 4.11122C9.35266 4.06961 9.29386 4.03832 9.23115 4.01914C9.16843 3.99997 9.10254 3.99329 9.03724 3.99948C8.97193 4.00567 8.90849 4.02461 8.85053 4.05522C8.79258 4.08583 8.74125 4.12751 8.69947 4.17788L5.13102 8.48172L3.90031 6.9064C3.86062 6.85324 3.81067 6.80851 3.75339 6.77483C3.69611 6.74116 3.63265 6.71922 3.56674 6.7103C3.50083 6.70138 3.4338 6.70565 3.36957 6.72288C3.30534 6.74011 3.24522 6.76994 3.19272 6.81063C3.14023 6.85131 3.09642 6.90202 3.06388 6.95979C3.03133 7.01756 3.0107 7.08123 3.00319 7.14704C2.99568 7.21286 3.00145 7.27951 3.02016 7.34308C3.03887 7.40665 3.07014 7.46586 3.11213 7.51723L4.36982 9.12687L4.37032 9.12787C4.45885 9.24212 4.57219 9.33493 4.70185 9.39937C4.83151 9.4638 4.97413 9.49818 5.11903 9.49994C5.26179 9.50158 5.40313 9.47149 5.53273 9.41185C5.66234 9.35222 5.77696 9.26455 5.86825 9.15523L5.86975 9.15423L9.47016 4.81159C9.51195 4.76123 9.54337 4.70316 9.56262 4.64071C9.58187 4.57826 9.58858 4.51264 9.58237 4.4476C9.57615 4.38256 9.55714 4.31938 9.5264 4.26167Z" fill="#23B920"/>
</svg>
