<svg width="95" height="36" viewBox="0 0 95 36" fill="none" xmlns="http://www.w3.org/2000/svg">
<path d="M18.005 7.44236C18.005 7.44236 16.8149 3.00224 10.8644 3.00224C0.0942497 3.00224 -0.0559955 16.6547 9.21962 16.5717C19.9226 16.4768 19.2346 23.9574 19.2346 23.9574C19.2346 28.184 16.1071 32.9048 10.4967 32.9958C4.82695 33.0907 2.53374 28.0931 2.53374 28.0931M25.5844 3.0025V33M39.5651 3.0025V22.2812C39.5651 24.8314 40.3519 27.35 41.9334 29.2992C47.4845 36.1274 59.3301 33.5456 59.3301 19.652V14.943M68.416 13.2349C68.416 10.7836 67.6292 8.36387 66.0477 6.48976C60.4966 -0.0735464 48.651 2.40549 48.651 15.7614V20.2885M39.565 15.6863L25.5844 15.7812M68.4159 33V20.6918C68.4159 20.6918 78.8618 17.7265 78.8579 23.9063C78.8579 30.2047 68.4159 27.2986 68.4159 27.2986M78.8578 33L74.8921 27.9629M71.6738 3.0025H92.4906M86.6785 33V3.0025" stroke="#0043C3" stroke-width="4.74456" stroke-linecap="round" stroke-linejoin="round"/>
</svg>
