<svg width="62" height="24" viewBox="0 0 62 24" fill="none" xmlns="http://www.w3.org/2000/svg">
<path d="M12.3128 5.33207C12.3128 5.33207 11.5612 2.52778 7.80298 2.52778C1.00078 2.52778 0.905887 11.1504 6.76417 11.098C13.5239 11.038 13.0894 15.7626 13.0894 15.7626C13.0894 18.432 11.1142 21.4136 7.57074 21.4711C3.98985 21.531 2.54151 18.3746 2.54151 18.3746M17.0998 2.52795V21.4737M25.9297 2.52795V14.704C25.9297 16.3146 26.4266 17.9053 27.4255 19.1364C30.9315 23.449 38.4129 21.8183 38.4129 13.0434V10.0693M44.1514 8.99054C44.1514 7.44232 43.6544 5.91407 42.6556 4.73043C39.1496 0.58518 31.6682 2.15088 31.6682 10.5862V13.4454M25.9297 10.5388L17.0998 10.5987M44.1513 21.4737V13.7001C44.1513 13.7001 50.7487 11.8273 50.7462 15.7303C50.7462 19.7083 44.1513 17.8729 44.1513 17.8729M50.7462 21.4737L48.2415 18.2924M46.2089 2.52795H59.3564M55.6856 21.4737V2.52795" stroke="white" stroke-width="2.99656" stroke-linecap="round" stroke-linejoin="round"/>
</svg>
