<svg width="18" height="17" viewBox="0 0 18 17" fill="none" xmlns="http://www.w3.org/2000/svg">
<path d="M11.9615 12.5385V14.8462C11.9615 15.1522 11.8332 15.4457 11.6048 15.662C11.3764 15.8784 11.0666 16 10.7436 16H2.21795C1.89492 16 1.58514 15.8784 1.35673 15.662C1.12832 15.4457 1 15.1522 1 14.8462V2.15385C1 1.84782 1.12832 1.55434 1.35673 1.33795C1.58514 1.12157 1.89492 1 2.21795 1H10.7436C11.0666 1 11.3764 1.12157 11.6048 1.33795C11.8332 1.55434 11.9615 1.84782 11.9615 2.15385V4.46154" stroke="#0043C3" stroke-width="1.25" stroke-linecap="round" stroke-linejoin="round"/>
<path d="M8.30762 8.5H16.8333" stroke="#0043C3" stroke-width="1.25" stroke-linecap="round" stroke-linejoin="round"/>
<path d="M14.3975 6.19238L16.8334 8.50008L14.3975 10.8078" stroke="#0043C3" stroke-width="1.25" stroke-linecap="round" stroke-linejoin="round"/>
</svg>
