<svg width="278" height="206" viewBox="0 0 278 206" fill="none" xmlns="http://www.w3.org/2000/svg">
<g clip-path="url(#clip0_358_3304)">
<path d="M19.3714 174.005C18.0398 174.005 16.7056 174.068 15.4025 174.195L15.2129 174.214C6.56976 175.093 0.247733 180.193 0.507736 186.077L0.557999 187.141C0.591147 187.814 0.626463 188.537 0.655534 189.339C0.671274 189.735 1.14051 190.039 1.72437 190.039H214.324C229.313 189.934 244.248 189.802 258.712 189.647C261.426 189.653 264.138 189.492 266.833 189.163C270.852 188.616 273.642 187.531 275.362 185.846H275.363C277.502 183.757 277.569 181.126 277.44 178.154C277.176 172.153 276.915 165.849 276.654 159.563C276.424 154.024 276.195 148.499 275.965 143.21C275.823 140.071 275.508 137.301 273.079 135.183C270.446 132.893 265.643 131.732 258.805 131.732C258.722 131.732 258.64 131.732 258.556 131.733C237.125 131.82 215.89 140.299 205.716 152.831C204.545 154.274 203.453 155.819 202.397 157.313C200.854 159.607 199.15 161.789 197.3 163.843C196.272 164.951 195.145 165.962 193.932 166.864C193.85 166.929 193.755 167 193.655 167.066C193.426 167.238 193.187 167.403 192.954 167.551C191.606 168.449 190.167 169.202 188.66 169.797L188.509 169.855C188.396 169.902 188.273 169.948 188.15 169.991C187.282 170.311 186.396 170.583 185.498 170.806C181.62 171.79 177.21 172.026 172.392 171.507C167.941 171.011 163.566 169.985 159.36 168.451C154.898 166.829 150.721 164.806 146.682 162.85C144.908 161.99 143.073 161.101 141.241 160.259C140.896 160.101 140.557 159.946 140.213 159.791C137.975 158.787 135.946 157.959 134.01 157.257C129.254 155.521 124.277 154.46 119.226 154.107C113.896 153.771 109.199 154.404 105.269 155.984C104.177 156.422 103.122 156.946 102.112 157.549C97.4567 160.331 94.5868 164.436 91.8117 168.406C88.3596 173.344 84.7898 178.45 77.741 181.098C69.6073 184.155 57.7348 182.885 49.3352 180.676C46.6943 179.981 44.0567 179.182 41.5058 178.409C40.4755 178.097 39.4446 177.787 38.4128 177.479C36.3855 176.877 34.7262 176.415 33.1912 176.026L32.7057 175.901C32.4356 175.834 32.1653 175.766 31.89 175.702C30.0667 175.262 28.3689 174.915 26.6969 174.643L26.3013 174.576C25.5082 174.456 24.7668 174.356 24.0392 174.272L23.7488 174.239C22.295 174.081 20.8337 174.003 19.3714 174.005Z" fill="#F2F2F2"/>
<path d="M44.1697 190.011C44.1693 189.894 44.2153 189.782 44.2977 189.699C44.38 189.616 44.4919 189.569 44.6087 189.569H233.372C233.488 189.57 233.6 189.616 233.682 189.699C233.764 189.781 233.81 189.893 233.81 190.009C233.81 190.126 233.764 190.237 233.682 190.32C233.6 190.402 233.488 190.449 233.372 190.449H44.6087C44.4924 190.449 44.3809 190.403 44.2987 190.321C44.2164 190.238 44.1701 190.127 44.1697 190.011Z" fill="#CACACA"/>
<path d="M193.009 15.9121C193.015 19.9218 191.5 23.7848 188.769 26.7223C188.562 26.9478 188.344 27.166 188.122 27.3767C179.894 21.0471 171.264 15.2565 162.288 10.0412C162.399 9.76024 162.517 9.48296 162.646 9.20938C164.174 5.9227 166.778 3.25555 170.028 1.64905C173.279 0.042552 176.98 -0.407066 180.521 0.374561C184.061 1.15619 187.229 3.12224 189.5 5.94755C191.771 8.77286 193.008 12.2882 193.009 15.9121Z" fill="#EB5D27"/>
<path d="M205.922 48.2983L205.907 48.4647C195.435 47.7437 184.964 47.0216 174.495 46.2982C166.93 45.7769 159.103 45.1854 152.418 41.6066C149.881 40.2498 147.41 38.4383 144.532 38.3126C140.962 38.1536 137.848 40.6491 135.399 43.2518C120.924 58.6611 116.733 82.2225 100.494 95.7574C110.736 70.5143 122.964 46.1223 137.063 22.8108C139.668 18.5037 142.756 13.9046 147.591 12.4997C152.204 11.1577 156.924 13.1171 161.17 15.6311C162.08 16.1709 162.968 16.7365 163.826 17.2985C170.37 21.5797 176.807 26.0248 183.136 30.6338C190.908 36.2866 198.503 42.1747 205.922 48.2983Z" fill="#F2F2F2"/>
<path d="M239.791 80.9804C228.598 65.1896 215.593 50.7629 201.043 37.9947C196.859 34.3199 192.552 30.7806 188.122 27.3768C179.894 21.0472 171.264 15.2566 162.288 10.0413C159.343 8.33328 156.364 6.69302 153.351 5.12054C151.009 3.90421 148.516 2.79139 145.815 2.96515C143.926 3.12654 142.122 3.82007 140.611 4.96526C137.293 7.38683 135.095 11.1689 133.287 14.7735C131.703 17.9345 130.227 21.1584 128.722 24.3637C128.082 25.7279 127.442 27.0884 126.78 28.4416C124.472 33.1812 122.109 37.8949 119.692 42.5828C116.578 48.6238 113.373 54.6192 110.078 60.569C103.157 73.0761 95.8541 85.3577 88.1686 97.4138C76.8715 115.134 64.7853 132.316 51.91 148.962C50.3305 150.999 49.6794 151.472 48.0777 153.494C47.7078 153.968 47.0494 153.302 47.4156 152.833C60.7731 135.959 72.4031 120.018 84.1292 101.969C92.9701 88.3597 101.325 74.4489 109.194 60.2362C111.721 55.6778 114.194 51.091 116.615 46.4758C120.532 39.004 124.314 31.4621 127.96 23.8498C128.922 21.846 129.874 19.8348 130.816 17.8162C133.808 11.4092 138.166 1.88192 146.581 2.01131C149.056 2.04828 151.353 3.05019 153.521 4.1593C155.729 5.2943 157.897 6.49954 160.061 7.72326C160.926 8.21127 161.788 8.70668 162.646 9.20948C166.046 11.1837 169.395 13.2405 172.693 15.3799C178.197 18.9475 183.556 22.7284 188.77 26.7224C191.244 28.619 193.682 30.5587 196.083 32.5416C211.146 44.9974 224.691 59.182 236.436 74.8026C237.853 76.6844 239.24 78.5872 240.598 80.5109C240.945 81.0026 240.135 81.4684 239.791 80.9804Z" fill="#E4E4E4"/>
<path d="M201.876 33.2892C202.365 32.7444 202.851 32.1996 203.343 31.6548C207.224 27.365 211.389 23.125 216.718 20.6657C219.259 19.456 222.033 18.8134 224.848 18.7823C227.757 18.7916 230.601 19.5543 233.289 20.6221C234.56 21.1295 235.803 21.7054 237.027 22.3187C238.425 23.0223 239.799 23.7725 241.166 24.529C243.733 25.9486 246.266 27.4304 248.766 28.9745C253.741 32.0471 258.559 35.3542 263.222 38.8958C265.639 40.7325 268.007 42.6294 270.324 44.5865C272.479 46.4045 274.591 48.2713 276.659 50.1869C277.102 50.5947 277.762 49.9348 277.32 49.527C276.775 49.0195 276.223 48.5152 275.672 48.0171C274.115 46.61 272.532 45.2299 270.925 43.8767C267.994 41.405 264.987 39.0286 261.905 36.7478C257.111 33.1989 252.152 29.8907 247.028 26.8233C244.468 25.2917 241.872 23.8244 239.241 22.4214C238.447 21.9981 237.643 21.584 236.83 21.1918C234.986 20.2619 233.069 19.4821 231.099 18.8601C228.309 17.9578 225.356 17.668 222.443 18.0102C219.631 18.4191 216.921 19.356 214.457 20.7715C209.224 23.6947 205.165 28.2149 201.216 32.6261C200.817 33.0744 201.474 33.7375 201.876 33.2892Z" fill="#E4E4E4"/>
<path d="M94.6576 77.7429L82.1185 73.1592L75.8927 70.8834C73.8651 70.1422 71.8424 69.2984 69.7463 68.7677C67.9248 68.2476 65.9907 68.2723 64.183 68.8385C62.5709 69.4349 61.0953 70.3491 59.8438 71.5269C58.5653 72.7036 57.3756 73.9733 56.2847 75.3256C54.9293 76.9537 53.5938 78.5988 52.2524 80.2384C46.7161 87.0054 41.2159 93.8017 35.752 100.627C30.2882 107.453 24.8609 114.308 19.4702 121.191C14.0663 128.092 8.69953 135.021 3.36994 141.979C2.71706 142.832 2.06473 143.684 1.41297 144.538C1.05287 145.009 0.240925 144.544 0.606101 144.066C5.97501 137.038 11.3813 130.039 16.8251 123.068C22.2822 116.081 27.7771 109.123 33.3096 102.195C38.8421 95.2676 44.4119 88.3698 50.0191 81.502C51.4161 79.7911 52.8153 78.082 54.2168 76.3748C55.3991 74.9347 56.568 73.4791 57.8647 72.1388C60.245 69.6784 63.2188 67.5041 66.7784 67.4451C68.8713 67.4105 70.8968 68.0742 72.8413 68.7773C74.9376 69.5352 77.0289 70.3074 79.1225 71.0727L91.7493 75.6884L94.906 76.8424C95.4662 77.0472 95.2242 77.9501 94.6576 77.7429Z" fill="#E4E4E4"/>
<path d="M218.368 26.0635C224.74 22.7904 232.901 23.4315 238.756 27.5208C227.587 29.4466 216.541 32.0234 205.673 35.2381C210.186 32.5948 213.716 28.4533 218.368 26.0635Z" fill="#F2F2F2"/>
<path d="M238.819 27.5095L240.046 28.5061C239.631 28.1573 239.2 27.8302 238.756 27.5208C238.777 27.5172 238.798 27.5131 238.819 27.5095Z" fill="#F2F2F2"/>
<path d="M60.3158 77.7887C61.5502 76.287 62.8847 74.7147 64.7309 74.1047L66.4546 74.1727C53.3334 97.3455 35.6121 117.594 14.3787 133.675C29.6911 115.046 45.0035 96.4174 60.3158 77.7887Z" fill="#F2F2F2"/>
<path d="M189.601 162.28L179.164 157.677V153.721L182.883 153.7C183.461 153.696 184.022 153.513 184.49 153.174C184.957 152.835 185.307 152.359 185.489 151.812L188.102 143.976C188.241 143.561 188.278 143.119 188.212 142.687C188.146 142.254 187.978 141.843 187.722 141.488C187.467 141.134 187.13 140.844 186.74 140.645C186.35 140.446 185.919 140.342 185.481 140.342H179.164V136.66H187.095C187.72 136.66 188.326 136.448 188.816 136.059C189.305 135.669 189.647 135.126 189.787 134.517L191.587 126.693C191.68 126.288 191.681 125.868 191.589 125.463C191.497 125.058 191.314 124.679 191.056 124.354C190.797 124.029 190.468 123.767 190.094 123.587C189.72 123.407 189.31 123.313 188.894 123.313H179.164V122.392C179.164 121.904 178.969 121.436 178.624 121.091C178.279 120.745 177.81 120.552 177.322 120.552C176.833 120.552 176.365 120.745 176.019 121.091C175.674 121.436 175.48 121.904 175.48 122.392V123.313H110.243V122.392C110.243 121.904 110.049 121.436 109.704 121.091C109.358 120.745 108.89 120.552 108.401 120.552C107.913 120.552 107.444 120.745 107.099 121.091C106.753 121.436 106.559 121.904 106.559 122.392V123.313H98.8242C98.4087 123.313 97.9986 123.407 97.6244 123.587C97.2502 123.767 96.9214 124.029 96.6627 124.354C96.4039 124.679 96.2217 125.058 96.1298 125.463C96.0378 125.868 96.0384 126.288 96.1315 126.693L97.9311 134.517C98.0711 135.126 98.4137 135.669 98.9028 136.059C99.3919 136.448 99.9986 136.66 100.624 136.66H106.559V140.342H102.237C101.802 140.342 101.372 140.445 100.984 140.642C100.596 140.839 100.26 141.125 100.004 141.477C99.7475 141.829 99.5779 142.236 99.509 142.666C99.4401 143.096 99.4738 143.536 99.6074 143.95L102.275 152.223C102.455 152.782 102.808 153.268 103.284 153.613C103.76 153.957 104.333 154.141 104.92 154.137L106.559 154.128V157.677L98.117 162.28C97.7541 162.28 97.3948 162.351 97.0596 162.49C96.7244 162.629 96.4198 162.832 96.1633 163.088C95.9067 163.345 95.7032 163.649 95.5643 163.984C95.4255 164.319 95.354 164.678 95.354 165.041C95.354 165.773 95.6451 166.476 96.1633 166.994C96.6814 167.512 97.3842 167.802 98.117 167.802H106.559V188.053C106.559 188.541 106.753 189.009 107.099 189.355C107.444 189.7 107.913 189.894 108.401 189.894C108.89 189.894 109.358 189.7 109.704 189.355C110.049 189.009 110.243 188.541 110.243 188.053V167.802H175.48V188.053C175.48 188.541 175.674 189.009 176.019 189.355C176.365 189.7 176.833 189.894 177.322 189.894C177.81 189.894 178.279 189.7 178.624 189.355C178.969 189.009 179.164 188.541 179.164 188.053V167.802H189.601C190.334 167.802 191.037 167.512 191.555 166.994C192.073 166.476 192.364 165.773 192.364 165.041C192.364 164.678 192.293 164.319 192.154 163.984C192.015 163.649 191.812 163.345 191.555 163.088C191.299 162.832 190.994 162.629 190.659 162.49C190.323 162.351 189.964 162.28 189.601 162.28ZM110.243 136.66H175.48V140.342H110.243V136.66ZM110.243 157.677V154.108L175.48 153.741V157.677H110.243Z" fill="#CCCCCC"/>
<path d="M33.929 154.468L36.8827 144.854C33.3288 140.945 28.8739 137.962 23.9048 136.164C28.7597 144.203 24.0553 154.689 26.0157 163.872C26.649 166.731 27.9181 169.412 29.7288 171.714C31.5395 174.017 33.8454 175.882 36.4757 177.173L40.9579 182.724C43.3077 178.621 44.7395 174.057 45.1547 169.348C45.57 164.638 44.9587 159.895 43.3631 155.444C42.4433 152.957 41.2136 150.594 39.7031 148.414C37.0395 151.543 33.929 154.468 33.929 154.468Z" fill="#F2F2F2"/>
<path d="M17.6879 155.697L16.0415 145.775C11.1163 143.86 5.79784 143.176 0.547974 143.782C8.48034 148.813 8.94909 160.295 14.8013 167.641C16.6442 169.918 18.9761 171.751 21.6242 173.005C24.2723 174.258 27.1687 174.9 30.0989 174.883L36.5875 177.853C36.8597 173.134 36.1049 168.411 34.3751 164.011C32.6453 159.611 29.9815 155.637 26.5674 152.365C24.634 150.548 22.4792 148.982 20.1542 147.704C19.1667 151.692 17.6879 155.697 17.6879 155.697Z" fill="#F2F2F2"/>
<path d="M250.902 113.765L244.441 106.055C246.194 101.073 249.139 96.5934 253.017 93.0061C251.671 102.299 260.085 110.132 261.851 119.355C262.379 122.235 262.253 125.198 261.48 128.023C260.707 130.847 259.309 133.462 257.387 135.674L255.417 142.529C251.656 139.662 248.562 136.014 246.347 131.836C244.133 127.659 242.851 123.051 242.59 118.33C242.469 115.681 242.683 113.027 243.227 110.43C246.898 112.279 250.902 113.765 250.902 113.765Z" fill="#F2F2F2"/>
<path d="M266.343 108.586L264.001 98.8056C267.794 95.1277 272.428 92.4308 277.5 90.949C272.149 98.6663 276.183 109.428 273.649 118.469C272.836 121.283 271.401 123.878 269.449 126.062C267.497 128.246 265.078 129.963 262.372 131.086L257.549 136.344C255.462 132.101 254.321 127.457 254.203 122.73C254.085 118.004 254.994 113.309 256.866 108.967C257.941 106.542 259.317 104.262 260.962 102.18C263.423 105.471 266.343 108.586 266.343 108.586Z" fill="#F2F2F2"/>
<path d="M138.797 198.179L134.553 200.225L124.636 184.837L130.9 181.817L138.797 198.179Z" fill="#FFB6B6"/>
<path d="M139.276 136.245L135.504 141.933C135.504 141.933 113.074 156.778 114.011 162.3C114.338 164.232 115.761 168.296 117.592 172.824C118.155 174.215 120.798 176.981 121.417 178.412C124.545 185.636 126.102 191.416 127.605 192.189C129.273 193.054 129.102 192.368 130.124 193.944L136.042 191.725C136.042 191.725 136.964 189.657 137.422 188.633C137.88 187.609 137.162 187.099 137.162 187.099C137.162 187.099 136.293 187.562 136.444 186.589C136.595 185.617 136.543 185.31 136.184 185.055C135.825 184.801 134.436 182.195 134.436 182.195C133.168 180.335 132.149 178.318 131.405 176.194C131.075 175.262 131.108 173.028 130.665 172.127C129.733 170.228 129.403 168.826 127.897 167.839C127.897 167.839 146.861 158.63 148.64 154.226C150.42 149.822 148.589 135.299 148.589 135.299L139.276 136.245Z" fill="#2F2E41"/>
<path d="M141.048 200.414L126.696 206L126.625 205.819C126.048 204.338 126.084 202.689 126.723 201.234C127.363 199.779 128.554 198.638 130.036 198.061L130.036 198.061L131.883 195.053L137.549 195.137L138.801 194.649L141.048 200.414Z" fill="#2F2E41"/>
<path d="M174.529 175.776L181.464 175.251L180.599 193.534L175.9 193.89L174.529 175.776Z" fill="#FFB6B6"/>
<path d="M136.421 141.275C134.826 134.258 139.32 155.183 143.98 159.095C145.813 160.633 153.484 159.041 159.835 159.526C163.727 159.858 167.526 160.889 171.051 162.571C170.038 164.416 171.098 167.17 171.295 169.646C171.655 174.162 172.017 178.316 172.017 178.316C172.017 178.316 172.013 181.268 171.816 181.661C171.618 182.055 171.717 182.35 172.306 183.138C172.896 183.926 171.912 183.925 171.912 183.925C171.912 183.925 171.517 184.711 172.402 185.401C173.287 186.091 175.389 188.1 175.389 188.1L181.025 187.6C181.188 185.729 181.674 185.483 182.742 183.937C183.757 182.475 183.525 173.698 182.809 165.461C182.76 164.902 183.54 163.146 183.487 162.595C182.958 157.068 181.4 153.236 180.713 151.168C180.239 149.741 177.963 148.511 174.886 147.474C174.417 147.316 173.929 147.162 173.425 147.013C164.941 144.498 152.171 143.262 152.171 143.262L145.188 137.055L136.421 141.275Z" fill="#2F2E41"/>
<path d="M175.269 192.887L176.545 192.463L180.854 188.785L184.196 189.924L184.196 189.924C185.705 189.423 187.351 189.542 188.773 190.254C190.194 190.967 191.274 192.214 191.775 193.722L191.836 193.907L177.219 198.758L175.269 192.887Z" fill="#2F2E41"/>
<path d="M142.856 100.868L138.661 104.06L133.602 105.614C133.602 105.614 131.511 135.016 129.626 136.899C127.742 138.783 129.441 138.833 129.063 141.28C128.684 143.727 127.764 148.742 127.764 148.742C140.484 155.472 151.45 155.652 160.259 147.777C160.371 147.29 160.314 146.779 160.096 146.329C159.879 145.879 159.513 145.517 159.062 145.302C157.422 144.433 160.573 140.375 159.233 139.697C157.893 139.018 159.778 133.132 159.778 133.132L158.541 120.853L159.518 118.89L157.135 106.878L152.999 105.369L151.347 101.391L142.856 100.868Z" fill="#0043C3"/>
<path d="M147.15 99.0909C151.733 99.0909 155.448 95.3781 155.448 90.7981C155.448 86.2182 151.733 82.5054 147.15 82.5054C142.568 82.5054 138.853 86.2182 138.853 90.7981C138.853 95.3781 142.568 99.0909 147.15 99.0909Z" fill="#FFB6B6"/>
<path d="M140.228 153.125C140.247 152.594 140.149 152.065 139.941 151.576C139.734 151.087 139.421 150.65 139.026 150.294C138.631 149.939 138.162 149.675 137.654 149.52C137.145 149.365 136.609 149.323 136.082 149.398L130.171 137.914L126.877 143.762L132.996 153.772C133.18 154.647 133.679 155.424 134.399 155.957C135.118 156.489 136.008 156.739 136.899 156.659C137.791 156.579 138.622 156.175 139.236 155.524C139.849 154.873 140.202 154.019 140.228 153.125Z" fill="#FFB6B6"/>
<path d="M130.272 150.316L117.592 130.674L117.634 130.584C117.682 130.48 120.553 124.282 123.335 118.605C123.764 117.731 124.19 116.869 124.604 116.044C124.782 115.688 124.958 115.339 125.131 114.998C126.3 112.695 127.321 110.792 127.93 109.888C129.278 107.844 131.285 106.323 133.618 105.576L133.676 105.561L133.732 105.584C134.873 106.066 135.816 106.921 136.405 108.01C136.995 109.098 137.195 110.355 136.974 111.573C135.874 117.446 133.423 122.984 129.815 127.749L127.759 130.457L134.903 145.979L130.272 150.316Z" fill="#0043C3"/>
<path d="M163.293 157.639V158.167C163.293 158.476 163.17 158.772 162.951 158.991C162.733 159.209 162.436 159.332 162.127 159.332H123.352C123.043 159.332 122.746 159.209 122.528 158.991C122.309 158.772 122.186 158.476 122.186 158.167V157.639C122.186 157.33 122.309 157.034 122.528 156.815C122.746 156.597 123.043 156.474 123.352 156.474H124.04C124.016 156.389 124.004 156.301 124.003 156.212V136.433C124.003 136.174 124.106 135.925 124.289 135.742C124.473 135.559 124.721 135.456 124.981 135.456H160.498C160.758 135.456 161.006 135.559 161.189 135.742C161.373 135.925 161.476 136.174 161.476 136.433V156.212C161.476 156.301 161.463 156.389 161.438 156.474H162.127C162.436 156.474 162.733 156.597 162.951 156.815C163.17 157.034 163.293 157.33 163.293 157.639Z" fill="#3F3D56"/>
<path d="M143.503 146.631C143.065 146.631 142.637 146.501 142.272 146.258C141.908 146.014 141.624 145.668 141.456 145.264C141.288 144.859 141.244 144.414 141.33 143.984C141.415 143.554 141.626 143.16 141.936 142.85C142.246 142.54 142.641 142.329 143.071 142.244C143.501 142.158 143.946 142.202 144.351 142.37C144.756 142.537 145.102 142.821 145.346 143.186C145.589 143.55 145.719 143.978 145.719 144.416C145.719 145.003 145.485 145.566 145.07 145.981C144.654 146.397 144.091 146.63 143.503 146.631ZM143.503 142.583C143.141 142.583 142.786 142.69 142.484 142.892C142.183 143.093 141.948 143.38 141.809 143.714C141.67 144.049 141.634 144.418 141.705 144.774C141.775 145.129 141.95 145.456 142.207 145.712C142.463 145.968 142.79 146.143 143.146 146.214C143.501 146.285 143.87 146.248 144.205 146.109C144.54 145.971 144.827 145.736 145.028 145.434C145.23 145.133 145.337 144.779 145.337 144.416C145.337 143.93 145.143 143.464 144.8 143.12C144.456 142.777 143.99 142.583 143.503 142.583Z" fill="white"/>
<path d="M142.74 145.676C143.858 145.676 144.765 144.77 144.765 143.653C144.765 142.535 143.858 141.629 142.74 141.629C141.621 141.629 140.714 142.535 140.714 143.653C140.714 144.77 141.621 145.676 142.74 145.676Z" fill="white"/>
<path d="M173.875 75.0266C173.526 75.4273 173.269 75.8996 173.122 76.4102C172.975 76.9209 172.942 77.4575 173.025 77.9823C173.109 78.5071 173.306 79.0072 173.603 79.4475C173.901 79.8879 174.291 80.2576 174.747 80.5308L172.104 93.1729L178.348 90.7023L179.901 79.0759C180.309 78.2799 180.411 77.3618 180.187 76.4957C179.964 75.6295 179.43 74.8755 178.687 74.3763C177.944 73.8772 177.044 73.6677 176.157 73.7876C175.27 73.9074 174.458 74.3483 173.875 75.0266Z" fill="#FFB6B6"/>
<path d="M179.839 83.4749L177.314 106.713L177.225 106.757C177.151 106.793 173.952 108.361 170.026 110.229C169.363 110.544 169.458 111.909 168.766 112.235C168.289 112.459 167.03 111.644 166.548 111.869C162.256 113.875 157.916 115.826 156.187 116.354C153.852 117.094 151.334 117.013 149.052 116.125L148.997 116.1L148.968 116.046C148.385 114.954 148.191 113.696 148.419 112.48C148.647 111.263 149.283 110.161 150.223 109.354C154.778 105.483 160.171 102.724 165.976 101.293L169.279 100.483L173.509 83.9291L179.839 83.4749Z" fill="#0043C3"/>
<path d="M165.702 74.7849L166.652 83.4024C166.719 83.6175 166.852 83.8056 167.033 83.9393C167.214 84.0729 167.433 84.145 167.658 84.145H172.038C172.263 84.1451 172.482 84.073 172.663 83.9393C172.844 83.8056 172.978 83.6175 173.044 83.4024L173.831 76.7975C174.058 76.9088 174.308 76.9647 174.561 76.9604C174.814 76.9562 175.062 76.892 175.286 76.7732C175.509 76.6543 175.701 76.4842 175.846 76.2768C175.99 76.0694 176.084 75.8307 176.118 75.5802C176.152 75.3297 176.127 75.0746 176.043 74.8359C175.96 74.5973 175.821 74.3818 175.638 74.2073C175.455 74.0328 175.233 73.9042 174.99 73.8321C174.748 73.76 174.492 73.7464 174.243 73.7925C174.145 73.6766 174.022 73.5835 173.884 73.5198C173.747 73.4561 173.596 73.4232 173.444 73.4236H166.708C166.544 73.4236 166.381 73.4622 166.234 73.5364C166.087 73.6106 165.96 73.7182 165.862 73.8506C165.764 73.983 165.698 74.1365 165.671 74.2988C165.643 74.4611 165.654 74.6276 165.702 74.7849ZM173.968 76.3509L174.45 74.7849C174.506 74.6042 174.512 74.4117 174.466 74.2281C174.487 74.227 174.506 74.222 174.527 74.222C174.83 74.222 175.12 74.3422 175.334 74.5561C175.548 74.77 175.668 75.0601 175.668 75.3626C175.668 75.6651 175.548 75.9552 175.334 76.1691C175.12 76.383 174.83 76.5032 174.527 76.5032C174.331 76.5019 174.138 76.4494 173.968 76.3509Z" fill="#3F3D56"/>
<path d="M153.908 83.6738C153.226 81.6898 149.829 80.3137 144.323 80.1223C138.816 79.931 137.419 86.4168 137.419 86.4168C133.743 89.3973 141.345 97.3768 141.712 97.0894L141.547 95.5902C141.273 93.107 140.11 91.1694 141.589 88.5815L143.01 88.5978C144.845 88.9504 146.68 89.3031 148.515 89.6558L146.343 87.7441L146.404 87.6493C147.328 88.1304 148.334 88.4355 149.369 88.5492C150.537 88.6178 151.814 88.1534 152.373 87.1267C152.522 86.8445 152.613 86.5352 152.641 86.2172C154.216 86.8459 154.936 88.7859 154.936 88.7859C154.936 88.7859 154.591 85.6579 153.908 83.6738Z" fill="#2F2E41"/>
</g>
<defs>
<clipPath id="clip0_358_3304">
<rect width="277" height="206" fill="white" transform="translate(0.5)"/>
</clipPath>
</defs>
</svg>
