<svg width="679" height="505" viewBox="0 0 679 505" fill="none" xmlns="http://www.w3.org/2000/svg">
<g opacity="0.4" clip-path="url(#clip0_378_4442)">
<path d="M46.2588 426.565C42.9948 426.565 39.7241 426.719 36.53 427.032L36.0651 427.077C14.8786 429.232 -0.618372 441.735 0.0189632 456.161L0.142172 458.769C0.223425 460.418 0.309994 462.191 0.381256 464.157C0.419838 465.127 1.57005 465.872 3.00126 465.872H524.139C560.882 465.615 597.491 465.292 632.945 464.911C639.598 464.927 646.247 464.531 652.851 463.724C662.704 462.383 669.542 459.723 673.759 455.593H673.761C679.005 450.472 679.17 444.024 678.853 436.738C678.207 422.026 677.566 406.571 676.927 391.162C676.362 377.583 675.8 364.039 675.238 351.073C674.89 343.378 674.118 336.586 668.162 331.395C661.708 325.781 649.936 322.936 633.173 322.936C632.97 322.936 632.769 322.936 632.564 322.936C580.03 323.152 527.978 343.937 503.039 374.657C500.167 378.195 497.491 381.982 494.903 385.646C491.12 391.269 486.945 396.619 482.408 401.655C479.888 404.369 477.125 406.848 474.154 409.059C473.951 409.22 473.719 409.392 473.474 409.556C472.913 409.976 472.327 410.382 471.756 410.743C468.451 412.945 464.923 414.791 461.229 416.25L460.86 416.392C460.583 416.507 460.282 416.621 459.981 416.725C457.852 417.51 455.681 418.178 453.479 418.724C443.973 421.135 433.163 421.713 421.352 420.441C410.443 419.226 399.718 416.712 389.407 412.95C378.47 408.973 368.232 404.014 358.332 399.218C353.983 397.111 349.485 394.933 344.992 392.869C344.148 392.48 343.317 392.101 342.474 391.721C336.988 389.26 332.014 387.228 327.268 385.509C315.609 381.252 303.411 378.652 291.03 377.785C277.964 376.962 266.451 378.515 256.816 382.389C254.14 383.463 251.552 384.746 249.078 386.225C237.666 393.044 230.632 403.107 223.829 412.84C215.367 424.945 206.617 437.463 189.338 443.953C169.4 451.447 140.298 448.334 119.708 442.919C113.234 441.216 106.769 439.257 100.516 437.362C97.9906 436.597 95.4634 435.836 92.9343 435.082C87.9647 433.605 83.8975 432.474 80.1347 431.519L78.9445 431.215C78.2825 431.049 77.6199 430.884 76.9452 430.726C72.4758 429.646 68.314 428.797 64.2155 428.128L63.2458 427.966C61.3017 427.671 59.4843 427.426 57.7008 427.219L56.9888 427.138C53.4252 426.753 49.8432 426.561 46.2588 426.565Z" fill="#F2F2F2"/>
<path d="M107.046 465.803C107.045 465.517 107.158 465.242 107.36 465.039C107.562 464.836 107.836 464.721 108.122 464.72H570.83C571.116 464.722 571.389 464.836 571.59 465.038C571.792 465.24 571.905 465.514 571.905 465.799C571.905 466.085 571.792 466.358 571.59 466.561C571.389 466.763 571.116 466.877 570.83 466.878H108.122C107.837 466.878 107.564 466.764 107.362 466.562C107.161 466.361 107.047 466.088 107.046 465.803Z" fill="#CACACA"/>
<path d="M471.889 39.0079C471.905 48.8374 468.192 58.3073 461.498 65.5086C460.99 66.0615 460.455 66.5962 459.911 67.1128C439.742 51.596 418.588 37.4006 396.584 24.6156C396.856 23.9268 397.146 23.2471 397.464 22.5764C401.208 14.5192 407.592 7.98084 415.559 4.04258C423.526 0.104314 432.599 -0.997904 441.278 0.91822C449.957 2.83434 457.722 7.65403 463.288 14.5802C468.854 21.5063 471.889 30.1239 471.889 39.0079Z" fill="#EB5D27"/>
<path d="M503.544 118.401L503.508 118.809C477.838 117.042 452.171 115.271 426.507 113.498C407.964 112.22 388.777 110.77 372.392 101.997C366.172 98.6706 360.115 94.2296 353.06 93.9215C344.31 93.5318 336.675 99.6494 330.673 106.03C295.192 143.805 284.918 201.565 245.112 234.745C270.218 172.863 300.192 113.067 334.753 55.9196C341.136 45.361 348.708 34.0865 360.559 30.6425C371.866 27.3525 383.436 32.156 393.846 38.319C396.076 39.6422 398.253 41.0288 400.356 42.4064C416.397 52.9015 432.174 63.7985 447.688 75.0972C466.739 88.9549 485.358 103.389 503.544 118.401Z" fill="#F2F2F2"/>
<path d="M586.566 198.52C559.128 159.809 527.251 124.443 491.584 93.1423C481.329 84.1335 470.771 75.457 459.911 67.1128C439.742 51.5961 418.588 37.4007 396.584 24.6156C389.366 20.4285 382.064 16.4074 374.677 12.5526C368.937 9.57079 362.826 6.84277 356.207 7.26874C351.576 7.66436 347.152 9.36453 343.449 12.1719C335.315 18.1083 329.929 27.3799 325.495 36.2165C321.614 43.9655 317.996 51.8686 314.306 59.7264C312.737 63.0707 311.168 66.4059 309.545 69.723C303.887 81.342 298.096 92.8975 292.172 104.39C284.537 119.199 276.682 133.896 268.606 148.482C251.64 179.143 233.738 209.25 214.899 238.805C187.207 282.245 157.58 324.368 126.019 365.173C122.148 370.167 120.552 371.327 116.625 376.285C115.719 377.445 114.105 375.813 115.002 374.662C147.745 333.298 176.253 294.218 204.997 249.971C226.668 216.61 247.149 182.508 266.438 147.666C272.632 136.491 278.695 125.247 284.628 113.933C294.23 95.6165 303.5 77.1276 312.438 58.4666C314.795 53.5543 317.129 48.624 319.438 43.6755C326.773 27.969 337.455 4.61323 358.084 4.93044C364.15 5.02108 369.781 7.47719 375.094 10.1961C380.507 12.9785 385.821 15.9331 391.125 18.933C393.247 20.1294 395.36 21.3438 397.464 22.5764C405.797 27.4161 414.006 32.4583 422.091 37.7029C435.583 46.4488 448.719 55.7174 461.498 65.5086C467.564 70.1581 473.54 74.9132 479.425 79.7741C516.349 110.309 549.55 145.082 578.342 183.375C581.815 187.988 585.215 192.653 588.543 197.369C589.395 198.574 587.409 199.716 586.566 198.52Z" fill="#E4E4E4"/>
<path d="M493.626 81.607C494.825 80.2714 496.016 78.9359 497.223 77.6004C506.736 67.0841 516.944 56.6899 530.008 50.661C536.237 47.6955 543.037 46.1201 549.936 46.0439C557.067 46.0668 564.038 47.9365 570.627 50.5541C573.742 51.7981 576.789 53.2099 579.789 54.7133C583.218 56.438 586.585 58.2773 589.936 60.1317C596.228 63.6117 602.438 67.2444 608.566 71.0296C620.76 78.5619 632.571 86.6692 644.001 95.3514C649.926 99.854 655.729 104.504 661.41 109.302C666.693 113.759 671.87 118.335 676.94 123.031C678.024 124.031 679.642 122.413 678.558 121.413C677.222 120.169 675.871 118.933 674.519 117.712C670.702 114.262 666.823 110.879 662.883 107.562C655.699 101.502 648.328 95.677 640.772 90.0856C629.021 81.3856 616.866 73.2758 604.306 65.7562C598.03 62.0015 591.667 58.4045 585.218 54.9652C583.271 53.9273 581.301 52.9123 579.308 51.9507C574.787 49.671 570.089 47.7595 565.26 46.2347C558.419 44.0228 551.182 43.3122 544.041 44.1513C537.147 45.1536 530.505 47.4504 524.465 50.9204C511.638 58.0865 501.689 69.1675 492.008 79.9814C491.03 81.0804 492.641 82.7059 493.626 81.607Z" fill="#E4E4E4"/>
<path d="M230.805 190.584L200.068 179.347L184.807 173.768C179.837 171.951 174.879 169.882 169.741 168.581C165.276 167.306 160.535 167.367 156.104 168.755C152.152 170.217 148.535 172.458 145.467 175.345C142.333 178.23 139.417 181.343 136.743 184.658C133.42 188.649 130.147 192.682 126.859 196.701C113.288 213.29 99.8054 229.951 86.4119 246.684C73.0186 263.417 59.715 280.221 46.5008 297.095C33.2544 314.012 20.0991 330.998 7.03487 348.056C5.43447 350.146 3.83545 352.236 2.2378 354.328C1.35512 355.484 -0.635181 354.344 0.259961 353.172C13.4206 335.943 26.6729 318.785 40.017 301.697C53.3939 284.568 66.8632 267.511 80.425 250.528C93.9864 233.545 107.64 216.635 121.384 199.799C124.809 195.605 128.238 191.415 131.674 187.23C134.572 183.7 137.437 180.131 140.616 176.845C146.451 170.814 153.74 165.484 162.466 165.339C167.596 165.254 172.561 166.881 177.328 168.605C182.466 170.463 187.592 172.356 192.724 174.232L223.676 185.547L231.414 188.376C232.787 188.878 232.194 191.091 230.805 190.584Z" fill="#E4E4E4"/>
<path d="M534.053 63.8935C549.672 55.8696 569.676 57.4411 584.029 67.4658C556.651 72.187 529.573 78.504 502.932 86.3845C513.995 79.9046 522.648 69.752 534.053 63.8935Z" fill="#F2F2F2"/>
<path d="M584.183 67.438L587.19 69.881C586.173 69.0259 585.116 68.2242 584.029 67.4656C584.081 67.4568 584.132 67.4468 584.183 67.438Z" fill="#F2F2F2"/>
<path d="M146.625 190.696C149.65 187.015 152.922 183.16 157.447 181.665L161.672 181.832C129.509 238.639 86.0693 288.277 34.0205 327.698C71.5552 282.031 109.09 236.363 146.625 190.696Z" fill="#F2F2F2"/>
<path d="M463.537 397.821L437.951 386.539V376.839L447.07 376.788C448.485 376.78 449.862 376.329 451.007 375.499C452.153 374.669 453.009 373.501 453.457 372.159L459.863 352.952C460.202 351.934 460.294 350.851 460.133 349.79C459.971 348.73 459.559 347.723 458.932 346.853C458.304 345.983 457.479 345.274 456.524 344.785C455.568 344.297 454.511 344.042 453.437 344.042H437.952V335.016H457.392C458.925 335.016 460.412 334.496 461.611 333.542C462.81 332.588 463.65 331.256 463.993 329.763L468.404 310.582C468.632 309.59 468.634 308.56 468.408 307.567C468.183 306.575 467.736 305.646 467.102 304.849C466.468 304.053 465.662 303.41 464.745 302.968C463.827 302.526 462.822 302.296 461.804 302.296H437.951V300.04C437.951 298.843 437.476 297.695 436.629 296.849C435.782 296.002 434.634 295.527 433.436 295.527C432.239 295.527 431.09 296.002 430.244 296.849C429.397 297.695 428.921 298.843 428.921 300.04V302.296H269.01V300.04C269.01 298.843 268.534 297.695 267.687 296.849C266.84 296.002 265.692 295.527 264.494 295.527C263.297 295.527 262.149 296.002 261.302 296.849C260.455 297.695 259.979 298.843 259.979 300.04V302.296H241.018C240 302.296 238.995 302.526 238.078 302.968C237.16 303.41 236.354 304.053 235.72 304.849C235.086 305.646 234.639 306.575 234.414 307.567C234.188 308.56 234.19 309.59 234.418 310.582L238.829 329.763C239.173 331.256 240.012 332.588 241.211 333.542C242.41 334.496 243.897 335.016 245.43 335.016H259.979V344.042H249.385C248.317 344.042 247.265 344.294 246.314 344.778C245.362 345.261 244.539 345.963 243.91 346.825C243.282 347.688 242.866 348.686 242.697 349.74C242.528 350.793 242.611 351.872 242.938 352.887L249.476 373.168C249.918 374.538 250.784 375.731 251.95 376.575C253.116 377.419 254.521 377.869 255.961 377.861L259.979 377.839V386.539L239.285 397.821C238.396 397.821 237.515 397.997 236.693 398.337C235.871 398.677 235.125 399.176 234.496 399.804C233.867 400.433 233.368 401.179 233.028 402C232.687 402.822 232.512 403.702 232.512 404.591C232.512 406.386 233.226 408.108 234.496 409.378C235.766 410.647 237.489 411.36 239.285 411.36H259.979V461.004C259.979 462.2 260.455 463.348 261.302 464.195C262.149 465.041 263.297 465.516 264.495 465.516C265.692 465.516 266.84 465.041 267.687 464.195C268.534 463.348 269.01 462.2 269.01 461.004V411.36H428.921V461.004C428.921 462.2 429.397 463.348 430.244 464.195C431.09 465.041 432.239 465.516 433.436 465.516C434.634 465.516 435.782 465.041 436.629 464.195C437.476 463.348 437.951 462.2 437.951 461.004V411.36H463.537C465.334 411.36 467.056 410.647 468.326 409.378C469.597 408.108 470.31 406.386 470.31 404.591C470.31 403.702 470.135 402.822 469.795 402C469.454 401.179 468.955 400.433 468.326 399.804C467.697 399.176 466.951 398.677 466.129 398.337C465.307 397.997 464.427 397.821 463.537 397.821ZM269.01 335.016H428.921V344.042H269.01V335.016ZM269.01 386.539V377.788L428.921 376.89V386.539H269.01Z" fill="#CCCCCC"/>
<path d="M81.9431 378.672L89.1834 355.104C80.4719 345.521 69.5518 338.208 57.3711 333.8C69.2716 353.507 57.74 379.214 62.5454 401.725C64.098 408.735 67.2088 415.305 71.6473 420.95C76.0858 426.594 81.7382 431.168 88.1857 434.332L99.1728 447.939C104.933 437.881 108.442 426.694 109.46 415.149C110.478 403.604 108.98 391.976 105.069 381.065C102.814 374.966 99.7995 369.175 96.0969 363.829C89.5679 371.501 81.9431 378.672 81.9431 378.672Z" fill="#F2F2F2"/>
<path d="M42.1322 381.683L38.0965 357.361C26.0234 352.667 12.9865 350.99 0.117676 352.475C19.562 364.808 20.711 392.957 35.0565 410.964C39.5737 416.545 45.2897 421.039 51.781 424.113C58.2722 427.187 65.3722 428.761 72.5548 428.719L88.46 436C89.1273 424.43 87.2771 412.852 83.0368 402.065C78.7966 391.278 72.2671 381.538 63.8983 373.517C59.1587 369.063 53.877 365.224 48.1776 362.089C45.757 371.866 42.1322 381.683 42.1322 381.683Z" fill="#F2F2F2"/>
<path d="M613.801 278.89L597.963 259.989C602.262 247.775 609.478 236.794 618.987 228C615.687 250.78 636.311 269.984 640.639 292.592C641.935 299.654 641.625 306.916 639.731 313.841C637.837 320.767 634.408 327.177 629.699 332.598L624.868 349.404C615.649 342.375 608.064 333.431 602.636 323.19C597.208 312.949 594.065 301.653 593.425 290.081C593.131 283.586 593.655 277.079 594.987 270.715C603.987 275.246 613.801 278.89 613.801 278.89Z" fill="#F2F2F2"/>
<path d="M651.652 266.195L645.91 242.218C655.207 233.202 666.566 226.59 679 222.958C665.882 241.876 675.773 268.258 669.559 290.422C667.569 297.32 664.05 303.682 659.265 309.036C654.48 314.39 648.551 318.6 641.917 321.352L630.095 334.241C624.98 323.84 622.181 312.454 621.892 300.868C621.603 289.282 623.831 277.771 628.421 267.129C631.056 261.183 634.429 255.594 638.46 250.491C644.493 258.559 651.652 266.195 651.652 266.195Z" fill="#F2F2F2"/>
<path d="M339.003 485.826L328.599 490.843L304.289 453.12L319.644 445.716L339.003 485.826Z" fill="#FFB6B6"/>
<path d="M340.176 333.998L330.929 347.943C330.929 347.943 275.949 384.335 278.244 397.872C279.047 402.608 282.536 412.569 287.023 423.67C288.402 427.082 294.882 433.861 296.4 437.369C304.067 455.079 307.885 469.248 311.567 471.144C315.656 473.263 315.237 471.582 317.742 475.445L332.25 470.007C332.25 470.007 334.51 464.937 335.632 462.426C336.754 459.914 334.995 458.665 334.995 458.665C334.995 458.665 332.865 459.8 333.235 457.416C333.605 455.032 333.477 454.28 332.597 453.655C331.717 453.031 328.312 446.644 328.312 446.644C325.205 442.085 322.707 437.138 320.882 431.931C320.073 429.647 320.154 424.172 319.069 421.962C316.784 417.306 315.975 413.87 312.282 411.449C312.282 411.449 358.769 388.875 363.13 378.078C367.492 367.282 363.004 331.679 363.004 331.679L340.176 333.998Z" fill="#2F2E41"/>
<path d="M344.519 491.305L309.34 505L309.166 504.555C307.752 500.925 307.839 496.883 309.406 493.316C310.974 489.75 313.895 486.952 317.526 485.538L317.527 485.538L322.054 478.164L335.942 478.369L339.013 477.174L344.519 491.305Z" fill="#2F2E41"/>
<path d="M426.591 430.907L443.589 429.621L441.471 474.442L429.953 475.313L426.591 430.907Z" fill="#FFB6B6"/>
<path d="M333.177 346.33C329.269 329.127 340.284 380.423 351.708 390.014C356.2 393.785 375.005 389.881 390.573 391.07C400.112 391.884 409.426 394.413 418.065 398.535C415.582 403.059 418.18 409.81 418.664 415.879C419.545 426.951 420.433 437.134 420.433 437.134C420.433 437.134 420.424 444.37 419.94 445.334C419.457 446.299 419.697 447.023 421.143 448.954C422.588 450.886 420.175 450.883 420.175 450.883C420.175 450.883 419.207 452.811 421.377 454.503C423.547 456.194 428.698 461.119 428.698 461.119L442.514 459.893C442.913 455.306 444.106 454.703 446.722 450.914C449.212 447.329 448.642 425.814 446.887 405.62C446.768 404.251 448.678 399.945 448.549 398.594C447.253 385.044 443.434 375.652 441.75 370.582C440.588 367.084 435.008 364.067 427.467 361.526C426.316 361.138 425.119 360.761 423.886 360.395C403.089 354.229 371.785 351.201 371.785 351.201L354.668 335.983L333.177 346.33Z" fill="#2F2E41"/>
<path d="M428.404 472.853L431.532 471.815L442.094 462.799L450.288 465.59L450.289 465.59C453.987 464.362 458.022 464.654 461.506 466.4C464.99 468.146 467.637 471.204 468.865 474.901L469.015 475.354L433.186 487.245L428.404 472.853Z" fill="#2F2E41"/>
<path d="M348.952 247.272L338.669 255.099L326.269 258.907C326.269 258.907 321.142 330.985 316.523 335.602C311.903 340.22 316.069 340.344 315.141 346.341C314.213 352.339 311.957 364.634 311.957 364.634C343.137 381.132 370.018 381.574 391.61 362.27C391.887 361.075 391.746 359.823 391.213 358.719C390.679 357.616 389.784 356.728 388.676 356.202C384.657 354.071 392.381 344.123 389.096 342.46C385.812 340.797 390.431 326.368 390.431 326.368L387.401 296.264L389.795 291.452L383.953 262.007L373.815 258.307L369.766 248.555L348.952 247.272Z" fill="#0043C3"/>
<path d="M359.478 242.917C370.711 242.917 379.817 233.815 379.817 222.588C379.817 211.36 370.711 202.258 359.478 202.258C348.245 202.258 339.139 211.36 339.139 222.588C339.139 233.815 348.245 242.917 359.478 242.917Z" fill="#FFB6B6"/>
<path d="M342.51 375.379C342.557 374.078 342.316 372.782 341.807 371.583C341.298 370.384 340.532 369.311 339.563 368.44C338.594 367.569 337.446 366.921 336.2 366.541C334.953 366.162 333.638 366.06 332.348 366.243L317.857 338.09L309.783 352.428L324.782 376.965C325.234 379.11 326.457 381.016 328.221 382.321C329.984 383.625 332.166 384.238 334.351 384.042C336.536 383.847 338.574 382.857 340.077 381.26C341.581 379.664 342.447 377.571 342.51 375.379Z" fill="#FFB6B6"/>
<path d="M318.106 368.492L287.024 320.342L287.127 320.121C287.244 319.867 294.282 304.673 301.102 290.756C302.153 288.613 303.198 286.5 304.211 284.477C304.649 283.604 305.08 282.749 305.504 281.912C308.369 276.268 310.871 271.602 312.365 269.386C315.67 264.376 320.589 260.646 326.307 258.815L326.451 258.778L326.588 258.836C329.385 260.015 331.696 262.112 333.14 264.781C334.585 267.449 335.076 270.53 334.534 273.516C331.838 287.915 325.83 301.491 316.985 313.171L311.947 319.81L329.457 357.862L318.106 368.492Z" fill="#0043C3"/>
<path d="M399.048 386.445V387.739C399.048 388.496 398.747 389.223 398.211 389.758C397.675 390.294 396.948 390.595 396.19 390.595H301.142C300.385 390.595 299.658 390.294 299.122 389.758C298.586 389.223 298.285 388.496 298.285 387.739V386.445C298.285 385.688 298.586 384.961 299.122 384.426C299.658 383.89 300.385 383.589 301.142 383.589H302.83C302.771 383.38 302.74 383.164 302.738 382.947V334.459C302.738 333.824 302.991 333.215 303.44 332.766C303.89 332.316 304.499 332.064 305.135 332.063H392.198C392.833 332.064 393.443 332.316 393.892 332.766C394.341 333.215 394.594 333.824 394.595 334.459V382.947C394.595 383.164 394.564 383.381 394.502 383.589H396.19C396.948 383.589 397.675 383.89 398.211 384.426C398.747 384.961 399.048 385.688 399.048 386.445Z" fill="#3F3D56"/>
<path d="M350.539 359.459C349.465 359.459 348.414 359.141 347.521 358.544C346.628 357.947 345.932 357.099 345.52 356.107C345.109 355.115 345.002 354.024 345.211 352.97C345.421 351.917 345.938 350.95 346.698 350.19C347.458 349.431 348.426 348.914 349.479 348.704C350.533 348.495 351.625 348.602 352.618 349.013C353.61 349.424 354.459 350.12 355.056 351.013C355.652 351.906 355.971 352.956 355.971 354.03C355.969 355.469 355.397 356.849 354.378 357.867C353.36 358.885 351.979 359.457 350.539 359.459ZM350.539 349.536C349.65 349.536 348.781 349.8 348.041 350.293C347.302 350.787 346.726 351.489 346.385 352.31C346.045 353.131 345.956 354.035 346.13 354.906C346.303 355.778 346.731 356.579 347.36 357.207C347.989 357.836 348.79 358.263 349.662 358.437C350.534 358.61 351.438 358.521 352.259 358.181C353.081 357.841 353.783 357.265 354.277 356.526C354.771 355.787 355.035 354.918 355.035 354.03C355.033 352.838 354.559 351.696 353.716 350.854C352.874 350.011 351.731 349.537 350.539 349.536Z" fill="white"/>
<path d="M348.667 357.119C351.408 357.119 353.63 354.898 353.63 352.158C353.63 349.418 351.408 347.196 348.667 347.196C345.925 347.196 343.703 349.418 343.703 352.158C343.703 354.898 345.925 357.119 348.667 357.119Z" fill="white"/>
<path d="M424.987 183.925C424.131 184.907 423.501 186.065 423.142 187.317C422.782 188.569 422.701 189.884 422.905 191.171C423.109 192.457 423.592 193.683 424.322 194.763C425.051 195.842 426.008 196.748 427.126 197.418L420.647 228.41L435.951 222.353L439.758 193.851C440.759 191.9 441.009 189.65 440.461 187.526C439.913 185.403 438.604 183.554 436.784 182.331C434.963 181.107 432.757 180.594 430.582 180.887C428.408 181.181 426.417 182.262 424.987 183.925Z" fill="#FFB6B6"/>
<path d="M439.607 204.635L433.418 261.603L433.198 261.711C433.018 261.799 425.177 265.644 415.552 270.222C413.928 270.994 414.161 274.339 412.464 275.139C411.295 275.69 408.208 273.691 407.027 274.243C396.507 279.161 385.869 283.942 381.629 285.238C375.906 287.05 369.734 286.852 364.139 284.675L364.004 284.613L363.934 284.482C362.504 281.806 362.03 278.722 362.589 275.74C363.148 272.758 364.707 270.055 367.01 268.077C378.176 258.588 391.395 251.823 405.625 248.316L413.722 246.33L424.091 205.749L439.607 204.635Z" fill="#0043C3"/>
<path d="M404.954 183.332L407.283 204.457C407.445 204.984 407.773 205.446 408.216 205.773C408.66 206.101 409.197 206.278 409.749 206.278H420.484C421.036 206.278 421.573 206.101 422.017 205.773C422.461 205.446 422.788 204.985 422.95 204.457L424.879 188.266C425.436 188.539 426.05 188.675 426.67 188.665C427.29 188.655 427.899 188.497 428.446 188.206C428.993 187.915 429.464 187.498 429.818 186.989C430.173 186.481 430.402 185.895 430.486 185.281C430.57 184.667 430.507 184.042 430.303 183.457C430.098 182.872 429.757 182.344 429.309 181.916C428.86 181.488 428.316 181.173 427.722 180.996C427.127 180.819 426.499 180.786 425.89 180.899C425.649 180.615 425.349 180.387 425.011 180.231C424.673 180.074 424.305 179.994 423.932 179.995H407.42C407.017 179.995 406.619 180.089 406.258 180.271C405.898 180.453 405.585 180.717 405.345 181.041C405.105 181.366 404.945 181.742 404.877 182.14C404.809 182.538 404.836 182.946 404.954 183.332ZM425.217 187.171L426.398 183.332C426.535 182.889 426.548 182.417 426.437 181.967C426.488 181.964 426.535 181.952 426.586 181.952C427.328 181.952 428.04 182.246 428.564 182.771C429.089 183.295 429.384 184.006 429.384 184.748C429.384 185.49 429.089 186.201 428.564 186.725C428.04 187.249 427.328 187.544 426.586 187.544C426.105 187.541 425.633 187.412 425.217 187.171Z" fill="#3F3D56"/>
<path d="M376.045 205.123C374.372 200.259 366.045 196.886 352.547 196.416C339.048 195.947 335.625 211.847 335.625 211.847C326.614 219.154 345.247 238.715 346.149 238.01L345.743 234.335C345.072 228.248 342.22 223.498 345.847 217.154L349.33 217.194C353.828 218.058 358.326 218.923 362.824 219.787L357.499 215.101L357.649 214.869C359.915 216.048 362.379 216.796 364.918 217.075C367.78 217.243 370.91 216.104 372.28 213.587C372.646 212.895 372.87 212.137 372.938 211.358C376.798 212.899 378.563 217.655 378.563 217.655C378.563 217.655 377.717 209.987 376.045 205.123Z" fill="#2F2E41"/>
</g>
<defs>
<clipPath id="clip0_378_4442">
<rect width="679" height="505" fill="white"/>
</clipPath>
</defs>
</svg>
