<svg width="704" height="431" viewBox="0 0 704 431" fill="none" xmlns="http://www.w3.org/2000/svg">
<g opacity="0.4" clip-path="url(#clip0_378_4557)">
<path d="M234.093 119.002C234.093 121.458 234.014 123.894 233.855 126.309C232.965 140.24 229.454 153.876 223.508 166.498C223.462 166.606 223.408 166.706 223.362 166.806C223.086 167.391 222.801 167.976 222.51 168.554C220.741 172.124 218.78 175.594 216.633 178.95C206.83 194.352 193.392 207.097 177.509 216.058C161.625 225.018 143.785 229.919 125.563 230.327L126.662 293.655L140.988 286.093L143.545 290.968L126.77 299.823L128.82 417.439L128.843 419.01L117.767 419.942L117.79 419.904L121.277 230.334C106.611 230.123 92.1321 226.994 78.6821 221.127C65.2321 215.261 53.0786 206.774 42.9273 196.16C42.2286 195.436 41.5369 194.689 40.8611 193.95C40.8303 193.919 40.8074 193.888 40.7842 193.865C32.3263 184.619 25.486 174.007 20.5516 162.478C20.6593 162.602 20.7744 162.717 20.8821 162.84C9.73013 136.697 8.97377 107.269 18.768 80.5845C28.5622 53.9005 48.1654 31.9817 73.5604 19.3198C73.9445 19.1273 74.3364 18.9425 74.7205 18.75C99.8409 6.62014 128.59 4.39448 155.271 12.5141C181.951 20.6338 204.614 38.5061 218.769 62.5885C219.445 63.7282 220.098 64.891 220.728 66.0614C229.52 82.3135 234.115 100.513 234.093 119.002Z" fill="#E5E5E5"/>
<path d="M152.309 420.201C170.58 420.201 185.391 405.353 185.391 387.037C185.391 368.721 170.58 353.874 152.309 353.874C134.039 353.874 119.228 368.721 119.228 387.037C119.228 405.353 134.039 420.201 152.309 420.201Z" fill="#2F2E41"/>
<path d="M191.409 409.834H161.771V419.909H191.409V409.834Z" fill="#2F2E41"/>
<path d="M191.618 419.909C193.352 419.909 194.759 416.15 194.759 411.513C194.759 406.876 193.352 403.117 191.618 403.117C189.883 403.117 188.477 406.876 188.477 411.513C188.477 416.15 189.883 419.909 191.618 419.909Z" fill="#2F2E41"/>
<path d="M184.495 409.064H154.858V419.139H184.495V409.064Z" fill="#2F2E41"/>
<path d="M184.705 419.139C186.439 419.139 187.845 415.38 187.845 410.743C187.845 406.106 186.439 402.347 184.705 402.347C182.97 402.347 181.564 406.106 181.564 410.743C181.564 415.38 182.97 419.139 184.705 419.139Z" fill="#2F2E41"/>
<path d="M120.219 356.196C117.548 344.204 126.087 332.086 139.291 329.13C152.495 326.174 165.365 333.5 168.036 345.493C170.707 357.485 161.956 361.908 148.752 364.864C135.548 367.82 122.89 368.189 120.219 356.196Z" fill="#0043C3"/>
<path d="M165.024 385.149C163.294 385.184 161.596 384.674 160.171 383.689C158.746 382.705 157.665 381.297 157.082 379.664C157.05 379.568 157.037 379.467 157.044 379.366C157.05 379.265 157.077 379.166 157.122 379.076C157.167 378.985 157.229 378.905 157.305 378.838C157.381 378.772 157.47 378.721 157.565 378.689C157.661 378.657 157.762 378.644 157.863 378.651C157.963 378.657 158.062 378.684 158.152 378.729C158.242 378.774 158.323 378.837 158.389 378.913C158.455 378.989 158.506 379.078 158.538 379.174C159.701 382.645 163.683 384.46 167.414 383.219C169.266 382.614 170.804 381.3 171.694 379.563C172.076 378.815 172.305 377.998 172.369 377.16C172.433 376.323 172.331 375.48 172.067 374.683C172.035 374.587 172.022 374.486 172.029 374.385C172.036 374.284 172.062 374.185 172.107 374.095C172.152 374.004 172.214 373.923 172.29 373.857C172.367 373.79 172.455 373.74 172.551 373.708C172.646 373.675 172.747 373.662 172.848 373.669C172.948 373.676 173.047 373.703 173.137 373.748C173.227 373.793 173.308 373.855 173.374 373.932C173.441 374.008 173.491 374.096 173.523 374.192C173.852 375.182 173.981 376.227 173.903 377.268C173.825 378.308 173.541 379.322 173.068 380.251C171.995 382.354 170.136 383.946 167.897 384.681C166.971 384.99 166.001 385.148 165.024 385.149Z" fill="white"/>
<path d="M179.76 389.657C180.648 391.397 180.81 393.42 180.21 395.28C179.61 397.14 178.298 398.685 176.562 399.576C174.825 400.466 172.808 400.628 170.952 400.027C169.096 399.425 167.555 398.11 166.667 396.369L166.661 396.356C164.815 392.73 167.365 390.479 170.982 388.629C174.6 386.779 177.915 386.03 179.76 389.657Z" fill="white"/>
<path d="M700.796 420.5H5.17158C4.96785 420.5 4.77246 420.419 4.62841 420.275C4.48436 420.13 4.40344 419.934 4.40344 419.73C4.40344 419.526 4.48436 419.33 4.62841 419.186C4.77246 419.041 4.96785 418.96 5.17158 418.96H700.796C701 418.96 701.195 419.041 701.339 419.186C701.484 419.33 701.564 419.526 701.564 419.73C701.564 419.934 701.484 420.13 701.339 420.275C701.195 420.419 701 420.5 700.796 420.5Z" fill="#3F3D56"/>
<path d="M144.908 430.941C147.989 430.144 148.435 421.522 145.904 411.683C143.373 401.844 138.823 394.513 135.742 395.31C132.661 396.107 132.215 404.729 134.746 414.568C137.278 424.407 141.827 431.737 144.908 430.941Z" fill="#2F2E41"/>
<path d="M200.457 347.503H187.87C187.751 347.503 187.633 347.467 187.535 347.399C187.436 347.331 187.36 347.235 187.317 347.122C187.273 347.01 187.265 346.888 187.293 346.771C187.321 346.654 187.383 346.548 187.472 346.467L198.917 336.076H188.342C188.185 336.076 188.034 336.013 187.923 335.902C187.811 335.79 187.749 335.639 187.749 335.481C187.749 335.323 187.811 335.172 187.923 335.06C188.034 334.948 188.185 334.886 188.342 334.886H200.457C200.577 334.886 200.694 334.922 200.793 334.99C200.892 335.058 200.968 335.155 201.011 335.267C201.054 335.379 201.062 335.501 201.034 335.618C201.007 335.735 200.944 335.841 200.855 335.922L189.41 346.313H200.457C200.614 346.313 200.765 346.376 200.877 346.488C200.988 346.599 201.05 346.751 201.05 346.908C201.05 347.066 200.988 347.217 200.877 347.329C200.765 347.441 200.614 347.503 200.457 347.503Z" fill="#CBCBCB"/>
<path d="M216.483 329.057H203.897C203.777 329.057 203.66 329.021 203.561 328.953C203.462 328.885 203.386 328.788 203.343 328.676C203.3 328.564 203.292 328.441 203.319 328.324C203.347 328.207 203.409 328.102 203.498 328.021L214.944 317.63H204.369C204.211 317.63 204.06 317.567 203.949 317.455C203.838 317.344 203.775 317.192 203.775 317.034C203.775 316.877 203.838 316.725 203.949 316.614C204.06 316.502 204.211 316.439 204.369 316.439H216.483C216.603 316.439 216.72 316.476 216.819 316.544C216.918 316.612 216.994 316.708 217.037 316.82C217.08 316.933 217.089 317.055 217.061 317.172C217.033 317.289 216.971 317.395 216.882 317.476L205.436 327.867H216.483C216.641 327.867 216.792 327.93 216.903 328.041C217.014 328.153 217.077 328.304 217.077 328.462C217.077 328.62 217.014 328.771 216.903 328.883C216.792 328.994 216.641 329.057 216.483 329.057Z" fill="#CBCBCB"/>
<path d="M209.36 308.826H196.774C196.654 308.826 196.537 308.789 196.438 308.721C196.339 308.653 196.263 308.557 196.22 308.445C196.177 308.333 196.169 308.21 196.197 308.093C196.224 307.976 196.287 307.87 196.376 307.79L207.821 297.398H197.246C197.089 297.398 196.938 297.335 196.826 297.224C196.715 297.112 196.652 296.961 196.652 296.803C196.652 296.645 196.715 296.494 196.826 296.382C196.938 296.271 197.089 296.208 197.246 296.208H209.36C209.48 296.208 209.597 296.244 209.696 296.312C209.795 296.38 209.871 296.477 209.914 296.589C209.958 296.701 209.966 296.824 209.938 296.941C209.91 297.058 209.848 297.163 209.759 297.244L198.314 307.636H209.36C209.518 307.636 209.669 307.698 209.78 307.81C209.891 307.921 209.954 308.073 209.954 308.231C209.954 308.388 209.891 308.54 209.78 308.651C209.669 308.763 209.518 308.826 209.36 308.826Z" fill="#CBCBCB"/>
<path d="M526.686 320.991L536.514 313.11C528.879 312.266 525.742 316.44 524.458 319.744C518.493 317.261 512 320.515 512 320.515L531.664 327.672C530.672 325.016 528.945 322.698 526.686 320.991Z" fill="#3F3D56"/>
<path d="M14.6861 7.99055L24.5143 0.110358C16.8792 -0.734086 13.7421 3.44024 12.4582 6.74426C6.49342 4.26129 0 7.51536 0 7.51536L19.6643 14.6719C18.6723 12.0157 16.9454 9.69795 14.6861 7.99055Z" fill="#3F3D56"/>
<path d="M281.686 103.991L291.514 96.1104C283.879 95.2659 280.742 99.4402 279.458 102.744C273.493 100.261 267 103.515 267 103.515L286.664 110.672C285.672 108.016 283.945 105.698 281.686 103.991Z" fill="#3F3D56"/>
<path d="M663.686 54.9906L673.514 47.1104C665.879 46.2659 662.742 50.4402 661.458 53.7443C655.493 51.2613 649 54.5154 649 54.5154L668.664 61.6719C667.672 59.0157 665.945 56.6979 663.686 54.9906Z" fill="#3F3D56"/>
</g>
<defs>
<clipPath id="clip0_378_4557">
<rect width="704" height="431" fill="white"/>
</clipPath>
</defs>
</svg>
