<svg width="274" height="356" viewBox="0 0 274 356" fill="none" xmlns="http://www.w3.org/2000/svg">
<g opacity="0.4" clip-path="url(#clip0_415_9510)">
<path d="M193.781 98.2937C193.781 100.323 193.715 102.335 193.584 104.33C192.847 115.836 189.941 127.099 185.019 137.525C184.981 137.614 184.936 137.697 184.898 137.779C184.669 138.263 184.434 138.746 184.192 139.223C182.728 142.172 181.105 145.038 179.328 147.81C171.212 160.532 160.089 171.059 146.941 178.461C133.793 185.862 119.024 189.91 103.941 190.247L104.85 242.555L116.709 236.309L118.826 240.335L104.939 247.65L106.637 344.799L106.656 346.096L97.4867 346.866L97.5057 346.834L100.392 190.253C88.2516 190.079 76.2664 187.494 65.1326 182.648C53.9988 177.802 43.9382 170.792 35.535 162.025C34.9566 161.427 34.384 160.81 33.8246 160.2C33.7991 160.174 33.7802 160.149 33.7609 160.13C26.7595 152.492 21.0972 143.728 17.0125 134.205C17.1016 134.307 17.1969 134.402 17.2861 134.504C8.05454 112.91 7.42844 88.6022 15.536 66.5616C23.6436 44.5209 39.871 26.4164 60.8929 15.9578C61.2108 15.7988 61.5353 15.6461 61.8532 15.4871C82.6477 5.46805 106.446 3.62968 128.532 10.3364C150.618 17.0431 169.379 31.8054 181.095 51.6971C181.655 52.6385 182.196 53.5989 182.717 54.5657C189.995 67.9897 193.799 83.0225 193.781 98.2937Z" fill="#E5E5E5"/>
<path d="M126.081 347.08C141.205 347.08 153.466 334.816 153.466 319.688C153.466 304.559 141.205 292.295 126.081 292.295C110.957 292.295 98.6962 304.559 98.6962 319.688C98.6962 334.816 110.957 347.08 126.081 347.08Z" fill="#2F2E41"/>
<path d="M158.447 338.517H133.913V346.839H158.447V338.517Z" fill="#2F2E41"/>
<path d="M158.62 346.839C160.056 346.839 161.22 343.734 161.22 339.904C161.22 336.074 160.056 332.969 158.62 332.969C157.184 332.969 156.021 336.074 156.021 339.904C156.021 343.734 157.184 346.839 158.62 346.839Z" fill="#2F2E41"/>
<path d="M152.724 337.881H128.191V346.203H152.724V337.881Z" fill="#2F2E41"/>
<path d="M152.898 346.203C154.333 346.203 155.497 343.098 155.497 339.268C155.497 335.438 154.333 332.333 152.898 332.333C151.462 332.333 150.298 335.438 150.298 339.268C150.298 343.098 151.462 346.203 152.898 346.203Z" fill="#2F2E41"/>
<path d="M99.5169 294.213C97.3057 284.308 104.374 274.298 115.304 271.857C126.235 269.416 136.888 275.467 139.099 285.372C141.31 295.278 134.066 298.931 123.136 301.373C112.206 303.814 101.728 304.119 99.5169 294.213Z" fill="#0043C3"/>
<path d="M136.606 318.128C135.174 318.157 133.769 317.735 132.589 316.922C131.409 316.109 130.515 314.946 130.031 313.597C130.005 313.518 129.994 313.434 130 313.351C130.006 313.268 130.028 313.186 130.065 313.111C130.102 313.037 130.154 312.97 130.216 312.915C130.279 312.86 130.353 312.818 130.432 312.792C130.511 312.765 130.595 312.754 130.678 312.76C130.761 312.766 130.842 312.788 130.917 312.825C130.992 312.862 131.059 312.914 131.114 312.977C131.168 313.04 131.21 313.113 131.237 313.192C132.2 316.059 135.496 317.559 138.584 316.533C140.117 316.034 141.391 314.949 142.127 313.514C142.443 312.896 142.633 312.221 142.686 311.529C142.739 310.837 142.654 310.141 142.436 309.483C142.409 309.403 142.399 309.32 142.404 309.236C142.41 309.153 142.432 309.072 142.469 308.997C142.507 308.922 142.558 308.855 142.621 308.801C142.684 308.746 142.757 308.704 142.836 308.677C142.916 308.651 142.999 308.64 143.082 308.646C143.166 308.651 143.247 308.673 143.322 308.711C143.397 308.748 143.463 308.799 143.518 308.862C143.573 308.925 143.615 308.998 143.642 309.078C143.914 309.895 144.02 310.759 143.956 311.618C143.891 312.477 143.656 313.315 143.265 314.082C142.377 315.819 140.838 317.134 138.984 317.741C138.217 317.996 137.414 318.127 136.606 318.128Z" fill="white"/>
<path d="M148.804 321.851C149.539 323.288 149.673 324.959 149.177 326.496C148.68 328.032 147.594 329.308 146.157 330.044C144.72 330.779 143.049 330.913 141.513 330.416C139.977 329.92 138.701 328.833 137.966 327.395L137.961 327.385C136.433 324.389 138.544 322.53 141.538 321.002C144.533 319.474 147.277 318.855 148.804 321.851Z" fill="white"/>
<path d="M246.543 347.327H4.281C4.11236 347.327 3.95062 347.26 3.83137 347.141C3.71212 347.021 3.64514 346.859 3.64514 346.691C3.64514 346.522 3.71212 346.36 3.83137 346.241C3.95062 346.122 4.11236 346.055 4.281 346.055H246.543C246.711 346.055 246.873 346.122 246.992 346.241C247.112 346.36 247.179 346.522 247.179 346.691C247.179 346.859 247.112 347.021 246.992 347.141C246.873 347.26 246.711 347.327 246.543 347.327Z" fill="#3F3D56"/>
<path d="M119.954 355.951C122.505 355.293 122.874 348.171 120.779 340.044C118.683 331.917 114.917 325.863 112.367 326.521C109.816 327.179 109.447 334.3 111.542 342.427C113.638 350.554 117.404 356.609 119.954 355.951Z" fill="#2F2E41"/>
<path d="M165.937 287.033H155.518C155.419 287.033 155.322 287.003 155.24 286.947C155.158 286.89 155.095 286.811 155.06 286.718C155.024 286.626 155.017 286.524 155.04 286.428C155.063 286.331 155.115 286.244 155.188 286.177L164.663 277.594H155.909C155.779 277.594 155.654 277.542 155.562 277.45C155.469 277.358 155.418 277.233 155.418 277.102C155.418 276.972 155.469 276.847 155.562 276.755C155.654 276.663 155.779 276.611 155.909 276.611H165.937C166.036 276.611 166.133 276.641 166.215 276.697C166.297 276.753 166.36 276.833 166.396 276.926C166.431 277.018 166.438 277.119 166.415 277.216C166.392 277.313 166.341 277.4 166.267 277.467L156.793 286.05H165.937C166.067 286.05 166.192 286.102 166.285 286.194C166.377 286.286 166.429 286.411 166.429 286.541C166.429 286.672 166.377 286.797 166.285 286.889C166.192 286.981 166.067 287.033 165.937 287.033Z" fill="#CBCBCB"/>
<path d="M179.204 271.796H168.785C168.686 271.797 168.589 271.766 168.507 271.71C168.425 271.654 168.362 271.574 168.326 271.482C168.291 271.389 168.284 271.288 168.307 271.191C168.33 271.095 168.381 271.007 168.455 270.941L177.929 262.357H169.175C169.045 262.357 168.92 262.306 168.828 262.214C168.736 262.121 168.684 261.996 168.684 261.866C168.684 261.736 168.736 261.611 168.828 261.518C168.92 261.426 169.045 261.375 169.175 261.375H179.204C179.303 261.375 179.4 261.405 179.482 261.461C179.564 261.517 179.627 261.597 179.662 261.689C179.698 261.782 179.705 261.883 179.682 261.98C179.659 262.076 179.607 262.164 179.534 262.23L170.059 270.814H179.204C179.334 270.814 179.459 270.865 179.551 270.957C179.643 271.05 179.695 271.175 179.695 271.305C179.695 271.435 179.643 271.56 179.551 271.653C179.459 271.745 179.334 271.796 179.204 271.796Z" fill="#CBCBCB"/>
<path d="M173.307 255.086H162.889C162.789 255.086 162.692 255.056 162.611 254.999C162.529 254.943 162.466 254.864 162.43 254.771C162.394 254.678 162.387 254.577 162.41 254.48C162.433 254.384 162.485 254.296 162.559 254.23L172.033 245.647H163.279C163.149 245.647 163.024 245.595 162.932 245.503C162.84 245.41 162.788 245.285 162.788 245.155C162.788 245.025 162.84 244.9 162.932 244.808C163.024 244.715 163.149 244.664 163.279 244.664H173.307C173.407 244.664 173.504 244.694 173.586 244.75C173.667 244.806 173.73 244.886 173.766 244.978C173.802 245.071 173.809 245.172 173.786 245.269C173.763 245.365 173.711 245.453 173.637 245.519L164.163 254.103H173.307C173.438 254.103 173.563 254.154 173.655 254.247C173.747 254.339 173.799 254.464 173.799 254.594C173.799 254.724 173.747 254.849 173.655 254.942C173.563 255.034 173.438 255.086 173.307 255.086Z" fill="#CBCBCB"/>
<path d="M245.517 112.819L253.653 106.31C247.332 105.613 244.735 109.061 243.673 111.79C238.735 109.739 233.36 112.427 233.36 112.427L249.638 118.338C248.817 116.144 247.387 114.23 245.517 112.819Z" fill="#3F3D56"/>
<path d="M12.157 6.60009L20.2927 0.0911542C13.9725 -0.606345 11.3756 2.84159 10.3128 5.57067C5.37516 3.51977 -6.10352e-05 6.20759 -6.10352e-05 6.20759L16.278 12.1188C15.4568 9.92477 14.0273 8.01037 12.157 6.60009Z" fill="#3F3D56"/>
<path d="M265.864 28.8618L274 22.3529C267.68 21.6554 265.083 25.1033 264.02 27.8324C259.082 25.7815 253.707 28.4693 253.707 28.4693L269.985 34.3805C269.164 32.1865 267.735 30.2721 265.864 28.8618Z" fill="#3F3D56"/>
</g>
<defs>
<clipPath id="clip0_415_9510">
<rect width="274" height="356" fill="white"/>
</clipPath>
</defs>
</svg>
