<svg width="16" height="18" viewBox="0 0 16 18" fill="none" xmlns="http://www.w3.org/2000/svg">
<path d="M6.07156 3.51923L6.56771 2.23846C6.65139 2.02161 6.79861 1.83509 6.99008 1.70332C7.18156 1.57155 7.40836 1.50069 7.64079 1.5H8.58694C8.81937 1.50069 9.04618 1.57155 9.23765 1.70332C9.42913 1.83509 9.57634 2.02161 9.66002 2.23846L10.1562 3.51923L11.8407 4.48846L13.2023 4.28077C13.429 4.25 13.6598 4.28731 13.8653 4.38798C14.0707 4.48866 14.2416 4.64813 14.3561 4.84615L14.8177 5.65385C14.9359 5.85502 14.9905 6.08732 14.974 6.3201C14.9575 6.55288 14.8709 6.77519 14.7254 6.95769L13.883 8.03077V9.96923L14.7484 11.0423C14.8939 11.2248 14.9806 11.4471 14.9971 11.6799C15.0136 11.9127 14.959 12.145 14.8407 12.3462L14.3792 13.1538C14.2646 13.3518 14.0937 13.5113 13.8884 13.612C13.6829 13.7127 13.4521 13.75 13.2254 13.7192L11.8638 13.5115L10.1792 14.4808L9.6831 15.7615C9.59942 15.9783 9.45221 16.1649 9.26073 16.2967C9.06926 16.4285 8.84245 16.4993 8.61002 16.5H7.64079C7.40836 16.4993 7.18156 16.4285 6.99008 16.2967C6.79861 16.1649 6.65139 15.9783 6.56771 15.7615L6.07156 14.4808L4.38694 13.5115L3.0254 13.7192C2.79869 13.75 2.56795 13.7127 2.36249 13.612C2.15705 13.5113 1.98617 13.3518 1.87156 13.1538L1.41002 12.3462C1.29175 12.145 1.23726 11.9127 1.25374 11.6799C1.27022 11.4471 1.35689 11.2248 1.50233 11.0423L2.34463 9.96923V8.03077L1.47925 6.95769C1.33382 6.77519 1.24714 6.55288 1.23066 6.3201C1.21419 6.08732 1.26867 5.85502 1.38694 5.65385L1.84848 4.84615C1.96309 4.64813 2.13398 4.48866 2.33942 4.38798C2.54487 4.28731 2.77562 4.25 3.00233 4.28077L4.36386 4.48846L6.07156 3.51923ZM5.80617 9C5.80617 9.45642 5.94152 9.90259 6.19509 10.2821C6.44867 10.6616 6.80907 10.9574 7.23074 11.132C7.65243 11.3067 8.11643 11.3524 8.56407 11.2634C9.01172 11.1743 9.42291 10.9545 9.74566 10.6318C10.0684 10.3091 10.2882 9.89785 10.3772 9.45021C10.4663 9.00256 10.4206 8.53857 10.2459 8.11688C10.0712 7.69521 9.77545 7.33479 9.39595 7.08122C9.01645 6.82765 8.57028 6.69231 8.11386 6.69231C7.50183 6.69231 6.91486 6.93543 6.48208 7.36822C6.04931 7.80099 5.80617 8.38797 5.80617 9Z" stroke="#5A5757" stroke-width="1.71429" stroke-linecap="round" stroke-linejoin="round"/>
</svg>
