<svg width="20" height="18" viewBox="0 0 20 18" fill="none" xmlns="http://www.w3.org/2000/svg">
<path d="M7.59539 6.49324C8.09264 5.99543 8.72641 5.65633 9.41646 5.51891C10.1066 5.38148 10.8219 5.45193 11.4719 5.72127C12.122 5.99061 12.6775 6.44675 13.0681 7.03198C13.4588 7.61716 13.6671 8.30516 13.6665 9.00881C13.6672 9.94774 13.2966 10.8488 12.6354 11.5155" stroke="#C7C4C4" stroke-width="1.3" stroke-linecap="round" stroke-linejoin="round"/>
<path d="M10.1111 12.5643C9.16806 12.5643 8.26371 12.1898 7.59695 11.5229C6.93011 10.8562 6.55553 9.95181 6.55553 9.00879" stroke="#C7C4C4" stroke-width="1.3" stroke-linecap="round" stroke-linejoin="round"/>
<path d="M5.12444 4.01326L15.1067 13.9954C16.6704 12.5524 17.9858 10.8616 19 8.991C14.8133 1.67547 9.72 0.0132619 5.12444 4.01326Z" stroke="#C7C4C4" stroke-width="1.3" stroke-linecap="round" stroke-linejoin="round"/>
<path d="M2.11142 1L5.12476 4.01333" stroke="#C7C4C4" stroke-width="1.3" stroke-linecap="round" stroke-linejoin="round"/>
<path d="M15.1066 13.9955L18.1111 16.9999" stroke="#C7C4C4" stroke-width="1.3" stroke-linecap="round" stroke-linejoin="round"/>
<path d="M3.38269 5.82666C2.57327 6.82388 1.8506 7.88854 1.22269 9.00889C4.77825 15.2311 8.98269 17.3556 12.9827 15.4267" stroke="#C7C4C4" stroke-width="1.3" stroke-linecap="round" stroke-linejoin="round"/>
</svg>
