<svg width="17" height="16" viewBox="0 0 17 16" fill="none" xmlns="http://www.w3.org/2000/svg">
<path fill-rule="evenodd" clip-rule="evenodd" d="M3.76235 0C2.85319 -6.70392e-08 1.98125 0.361072 1.33825 1.00382C0.695253 1.64657 0.333845 2.51838 0.333496 3.42754V12.5711C0.333496 13.4805 0.694749 14.3527 1.33778 14.9957C1.98082 15.6387 2.85296 16 3.76235 16H12.906C13.8151 15.9997 14.6869 15.6382 15.3297 14.9952C15.9724 14.3523 16.3335 13.4803 16.3335 12.5711V3.42754C16.3331 2.5186 15.9719 1.647 15.3292 1.00429C14.6865 0.361575 13.8149 0.000348985 12.906 0H3.76235ZM13.8922 3.4328C13.8922 3.69472 13.7882 3.94592 13.603 4.13112C13.4178 4.31633 13.1666 4.42038 12.9046 4.42038C12.6427 4.42038 12.3915 4.31633 12.2063 4.13112C12.0211 3.94592 11.9171 3.69472 11.9171 3.4328C11.9171 3.17088 12.0211 2.91969 12.2063 2.73448C12.3915 2.54928 12.6427 2.44523 12.9046 2.44523C13.1666 2.44523 13.4178 2.54928 13.603 2.73448C13.7882 2.91969 13.8922 3.17088 13.8922 3.4328ZM8.33547 5.26047C7.60908 5.26047 6.91244 5.54903 6.3988 6.06267C5.88516 6.57631 5.5966 7.27295 5.5966 7.99934C5.5966 8.72573 5.88516 9.42238 6.3988 9.93601C6.91244 10.4497 7.60908 10.7382 8.33547 10.7382C9.06186 10.7382 9.75851 10.4497 10.2721 9.93601C10.7858 9.42238 11.0743 8.72573 11.0743 7.99934C11.0743 7.27295 10.7858 6.57631 10.2721 6.06267C9.75851 5.54903 9.06186 5.26047 8.33547 5.26047ZM4.27852 7.99934C4.27852 7.46675 4.38342 6.93937 4.58724 6.44732C4.79105 5.95527 5.08979 5.50818 5.46639 5.13158C5.84299 4.75497 6.29008 4.45624 6.78213 4.25242C7.27418 4.04861 7.80156 3.94371 8.33416 3.94371C8.86675 3.94371 9.39413 4.04861 9.88618 4.25242C10.3782 4.45624 10.8253 4.75497 11.2019 5.13158C11.5785 5.50818 11.8773 5.95527 12.0811 6.44732C12.2849 6.93937 12.3898 7.46675 12.3898 7.99934C12.3898 9.07496 11.9625 10.1065 11.2019 10.8671C10.4413 11.6277 9.40978 12.055 8.33416 12.055C7.25853 12.055 6.22697 11.6277 5.46639 10.8671C4.70581 10.1065 4.27852 9.07496 4.27852 7.99934Z" fill="white"/>
</svg>
