<svg width="16" height="16" viewBox="0 0 16 16" fill="none" xmlns="http://www.w3.org/2000/svg">
<g clip-path="url(#clip0_254_363)">
<path d="M0 14.7691V1.23086C0 0.904414 0.129679 0.59134 0.36051 0.36051C0.59134 0.129679 0.904414 0 1.23086 0L14.7691 0C14.9308 0 15.0908 0.0318371 15.2402 0.0936934C15.3895 0.15555 15.5252 0.246214 15.6395 0.36051C15.7538 0.474805 15.8444 0.610494 15.9063 0.759829C15.9682 0.909163 16 1.06922 16 1.23086V14.7691C16 14.9308 15.9682 15.0908 15.9063 15.2402C15.8444 15.3895 15.7538 15.5252 15.6395 15.6395C15.5252 15.7538 15.3895 15.8444 15.2402 15.9063C15.0908 15.9682 14.9308 16 14.7691 16H11.0777V10.1657H11.9509C12.15 10.1657 12.341 10.0866 12.4818 9.94579C12.6226 9.80498 12.7017 9.614 12.7017 9.41486V8.46857C12.702 8.36988 12.6828 8.27211 12.6452 8.18087C12.6075 8.08964 12.5523 8.00675 12.4825 7.93696C12.4127 7.86718 12.3298 7.81188 12.2386 7.77426C12.1473 7.73663 12.0495 7.71741 11.9509 7.71771H11.1257V6.56C11.1257 5.52571 11.5943 5.52571 12.0617 5.52571H12.664C12.7632 5.5301 12.8621 5.51261 12.9537 5.47449C13.0454 5.43637 13.1275 5.37855 13.1943 5.30514C13.266 5.23693 13.3227 5.15457 13.3608 5.06328C13.399 4.972 13.4178 4.87378 13.416 4.77486V3.86514C13.4222 3.66261 13.3478 3.4659 13.2092 3.31809C13.0706 3.17028 12.8791 3.08343 12.6766 3.07657H11.2617C10.8487 3.06093 10.4372 3.13516 10.0557 3.29413C9.67413 3.45309 9.33167 3.69301 9.05194 3.9973C8.77222 4.30158 8.5619 4.66298 8.43552 5.05651C8.30915 5.45004 8.26973 5.86632 8.32 6.27657V7.71657H7.53143C7.43187 7.71506 7.333 7.73336 7.24058 7.77041C7.14816 7.80747 7.06403 7.86254 6.99309 7.93241C6.92215 8.00229 6.86582 8.08557 6.82737 8.17742C6.78893 8.26927 6.76913 8.36786 6.76914 8.46743V9.416C6.76928 9.51557 6.78922 9.61413 6.82781 9.70592C6.86639 9.79772 6.92285 9.88092 6.9939 9.95069C7.06494 10.0205 7.14916 10.0754 7.24163 10.1123C7.33411 10.1492 7.43301 10.1674 7.53257 10.1657H8.32V16H1.23086C1.06922 16 0.909163 15.9682 0.759829 15.9063C0.610494 15.8444 0.474805 15.7538 0.36051 15.6395C0.246214 15.5252 0.15555 15.3895 0.0936934 15.2402C0.0318371 15.0908 0 14.9308 0 14.7691Z" fill="white"/>
</g>
<defs>
<clipPath id="clip0_254_363">
<rect width="16" height="16" fill="white"/>
</clipPath>
</defs>
</svg>
