<svg width="30" height="30" viewBox="0 0 30 30" fill="none" xmlns="http://www.w3.org/2000/svg">
<path d="M14.9933 18C16.6467 18 18 16.6563 18 15C18 14.3481 17.7867 13.7428 17.4333 13.2506C16.8867 12.4989 16 12 15 12C14 12 13.1134 12.4922 12.5667 13.2506C12.2134 13.7428 12 14.3481 12 15C11.9934 16.6563 13.34 18 14.9933 18Z" fill="#8F8B8B"/>
<path d="M21 11.9931V9.38621V9H20.6129L18 9.0069L18.0138 12L21 11.9931Z" fill="#8F8B8B"/>
<path d="M19.0777 14.6272C19.0777 17.0155 17.2485 18.9582 15 18.9582C12.7515 18.9582 10.9223 17.0155 10.9223 14.6272C10.9223 14.0518 11.033 13.5012 11.2252 13H9V19.4841C9 20.3194 9.64078 21 10.4272 21H19.5728C20.3592 21 21 20.3194 21 19.4841V13H18.7748C18.9728 13.5012 19.0777 14.0518 19.0777 14.6272Z" fill="#8F8B8B"/>
<path d="M15 0C6.71484 0 0 6.71484 0 15C0 23.2852 6.71484 30 15 30C23.2852 30 30 23.2852 30 15C30 6.71484 23.2852 0 15 0ZM22.5 13.459V19.5996C22.5 21.1992 21.1992 22.5 19.5996 22.5H10.4004C8.80078 22.5 7.5 21.1992 7.5 19.5996V13.459V10.3945C7.5 8.79492 8.80078 7.49414 10.4004 7.49414H19.5996C21.1992 7.49414 22.5 8.79492 22.5 10.3945V13.459Z" fill="#8F8B8B"/>
</svg>
